<mxfile host="app.diagrams.net" modified="2024-03-16T15:35:59.033Z" agent="Mozilla/5.0 (Macintosh; Intel Mac OS X 10_15_7) AppleWebKit/537.36 (KHTML, like Gecko) Chrome/122.0.0.0 Safari/537.36 Edg/122.0.0.0" version="24.0.3" etag="pjBqP6TvsptAbOqZnQFV" type="github">
  <diagram name="第 1 页" id="J_TQbZg-ETaJ6GWBRCv1">
    <mxGraphModel>
      <root>
        <mxCell id="0" />
        <mxCell id="1" parent="0" />
      </root>
    </mxGraphModel>
  </diagram>
</mxfile>
